<?xml version="1.0" ?><svg viewBox="0 0 64 64" xmlns="http://www.w3.org/2000/svg"><title/><g data-name="Layer 3" id="Layer_3"><path d="M26,35a1,1,0,0,0-1,1v3a1,1,0,0,0,2,0V36A1,1,0,0,0,26,35Z"/><path d="M38,40a1,1,0,0,0,1-1V36a1,1,0,0,0-2,0v3A1,1,0,0,0,38,40Z"/><path d="M32,11.35C3-.76,12.18,62.5,12.18,62.5H51.82S61-.76,32,11.35ZM29.94,49.92a8.09,8.09,0,0,1-.84-.12h0a16.63,16.63,0,0,1-1.79-.47,33.18,33.18,0,0,1-3.22-1.27,9.35,9.35,0,0,1-3.33-2.62c-.15-.18-.28-.39-.41-.58-.2-6.84.28-14.38,2.5-20l3.35.23L32,26.41l5.79-1.32,3.37-.24c2.22,5.63,2.7,13.17,2.5,20-.14.19-.26.41-.41.59a9.44,9.44,0,0,1-3.33,2.61,30.78,30.78,0,0,1-3.22,1.26,15.23,15.23,0,0,1-1.8.48A15,15,0,0,1,29.94,49.92ZM27.5,54.8a2.15,2.15,0,0,0,2-2.13V50.89l.63.07.46,0c.43,0,.87.07,1.31.07h.19c.45,0,.89,0,1.33-.07l.45,0,.63-.07v1.78a2.15,2.15,0,0,0,2,2.13l.9.06c-.34.81-1.54,2.79-5.41,2.86h-.18c-3.85,0-5-2.13-5.23-2.86Zm-5.59,6.7c-.18-1.24-.51-3.54-.82-6.27l3.2-.21,1.28-.09c.26.85,1.57,3.86,6.44,3.79s6.17-3,6.42-3.79L39.8,55l3.11.21c-.31,2.73-.64,5-.82,6.27Z"/></g></svg>